# xmcd
#
# Track frame offsets:
#	182
#	9930
#	20545
#	32035
#	44385
#	54005
#	64085
#	74272
#	85720
#	97365
#	110300
#	122902
#	134590
#	143067
#	153665
#	164775
#	176635
#	187005
#	199617
#	211287
#	222557
#	233712
#
# Disc length: 3279 seconds
#
# Revision: 12
# Processed by: cddbd v1.5.2PL0 Copyright (c) Steve Scherf et al.
# Submitted via: audiograbber 1.83.01
#
DISCID=430ccd16
DTITLE=Various Artist - Time-Life - Rhythm and Blues - 1958
DYEAR=1992
DGENRE=Oldies
TTITLE0=Little Richard - Good Golly Miss Molly
TTITLE1=Olympics - Western Movies
TTITLE2=Clyde McPhatter - A Lover's Question
TTITLE3=Little Willie John - Talk To Me Talk To Me
TTITLE4=Gene Allison - You Can Make It If You Try
TTITLE5=Danleers - One Summer Night
TTITLE6=Hollywood Flames - Buzz-Buzz-Buzz
TTITLE7=Huey 'Piano' Smith and The Clowns - Don't You Just Know It
TTITLE8=Bobby Freeman - Do You Wanna Dance
TTITLE9=Chantels - Maybe
TTITLE10=Platters - Twilight Time
TTITLE11=Bobby Day - RockIn' Robin
TTITLE12=Coasters - Yakety Yak
TTITLE13=Monotones - Book Of Love
TTITLE14=Dee Clark - Nobody But You
TTITLE15=Tommy Edwards - It's All In The Game
TTITLE16=Little Anthony and The Imperials - Tears On My Pillow
TTITLE17=Silhouettes - Get A Job
TTITLE18=Johnny Otis Show - Willie And The Hand Jive
TTITLE19=Roy Hamilton - Don't Let Go
TTITLE20=Chuck Willis - What Am I Living For
TTITLE21=Jerry Butler and The Impressions - For Your Precious Love
EXTD=
EXTT0=
EXTT1=
EXTT2=
EXTT3=
EXTT4=
EXTT5=
EXTT6=
EXTT7=
EXTT8=
EXTT9=
EXTT10=
EXTT11=
EXTT12=
EXTT13=
EXTT14=
EXTT15=
EXTT16=
EXTT17=
EXTT18=
EXTT19=
EXTT20=
EXTT21=
PLAYORDER=
